<svg id="visual" viewBox="0 0 900 200" width="900" height="200" xmlns="http://www.w3.org/2000/svg" xmlns:xlink="http://www.w3.org/1999/xlink" version="1.1"><rect x="0" y="0" width="900" height="200" fill="#001220"></rect><path d="M0 139L10.7 139.7C21.3 140.3 42.7 141.7 64.2 139.8C85.7 138 107.3 133 128.8 130.3C150.3 127.7 171.7 127.3 193 132.7C214.3 138 235.7 149 257 152.8C278.3 156.7 299.7 153.3 321.2 151.7C342.7 150 364.3 150 385.8 143.3C407.3 136.7 428.7 123.3 450 117.7C471.3 112 492.7 114 514.2 120.8C535.7 127.7 557.3 139.3 578.8 140.5C600.3 141.7 621.7 132.3 643 133.7C664.3 135 685.7 147 707 151.7C728.3 156.3 749.7 153.7 771.2 152.3C792.7 151 814.3 151 835.8 152.5C857.3 154 878.7 157 889.3 158.5L900 160L900 0L889.3 0C878.7 0 857.3 0 835.8 0C814.3 0 792.7 0 771.2 0C749.7 0 728.3 0 707 0C685.7 0 664.3 0 643 0C621.7 0 600.3 0 578.8 0C557.3 0 535.7 0 514.2 0C492.7 0 471.3 0 450 0C428.7 0 407.3 0 385.8 0C364.3 0 342.7 0 321.2 0C299.7 0 278.3 0 257 0C235.7 0 214.3 0 193 0C171.7 0 150.3 0 128.8 0C107.3 0 85.7 0 64.2 0C42.7 0 21.3 0 10.7 0L0 0Z" fill="#e6e6fa"></path><path d="M0 103L10.7 103.7C21.3 104.3 42.7 105.7 64.2 106C85.7 106.3 107.3 105.7 128.8 105C150.3 104.3 171.7 103.7 193 104.7C214.3 105.7 235.7 108.3 257 112C278.3 115.7 299.7 120.3 321.2 121C342.7 121.7 364.3 118.3 385.8 115C407.3 111.7 428.7 108.3 450 106.3C471.3 104.3 492.7 103.7 514.2 103.3C535.7 103 557.3 103 578.8 100.7C600.3 98.3 621.7 93.7 643 95.5C664.3 97.3 685.7 105.7 707 105.8C728.3 106 749.7 98 771.2 98.5C792.7 99 814.3 108 835.8 111.7C857.3 115.3 878.7 113.7 889.3 112.8L900 112L900 0L889.3 0C878.7 0 857.3 0 835.8 0C814.3 0 792.7 0 771.2 0C749.7 0 728.3 0 707 0C685.7 0 664.3 0 643 0C621.7 0 600.3 0 578.8 0C557.3 0 535.7 0 514.2 0C492.7 0 471.3 0 450 0C428.7 0 407.3 0 385.8 0C364.3 0 342.7 0 321.2 0C299.7 0 278.3 0 257 0C235.7 0 214.3 0 193 0C171.7 0 150.3 0 128.8 0C107.3 0 85.7 0 64.2 0C42.7 0 21.3 0 10.7 0L0 0Z" fill="#eebfea"></path><path d="M0 81L10.7 80.5C21.3 80 42.7 79 64.2 78.5C85.7 78 107.3 78 128.8 79.7C150.3 81.3 171.7 84.7 193 82.2C214.3 79.7 235.7 71.3 257 67.2C278.3 63 299.7 63 321.2 65.8C342.7 68.7 364.3 74.3 385.8 75.7C407.3 77 428.7 74 450 69.5C471.3 65 492.7 59 514.2 60.5C535.7 62 557.3 71 578.8 76C600.3 81 621.7 82 643 81.7C664.3 81.3 685.7 79.7 707 75.3C728.3 71 749.7 64 771.2 65.7C792.7 67.3 814.3 77.7 835.8 77.8C857.3 78 878.7 68 889.3 63L900 58L900 0L889.3 0C878.7 0 857.3 0 835.8 0C814.3 0 792.7 0 771.2 0C749.7 0 728.3 0 707 0C685.7 0 664.3 0 643 0C621.7 0 600.3 0 578.8 0C557.3 0 535.7 0 514.2 0C492.7 0 471.3 0 450 0C428.7 0 407.3 0 385.8 0C364.3 0 342.7 0 321.2 0C299.7 0 278.3 0 257 0C235.7 0 214.3 0 193 0C171.7 0 150.3 0 128.8 0C107.3 0 85.7 0 64.2 0C42.7 0 21.3 0 10.7 0L0 0Z" fill="#ff93af"></path><path d="M0 24L10.7 25C21.3 26 42.7 28 64.2 32C85.7 36 107.3 42 128.8 44.3C150.3 46.7 171.7 45.3 193 44.7C214.3 44 235.7 44 257 42.7C278.3 41.3 299.7 38.7 321.2 38C342.7 37.3 364.3 38.7 385.8 39.3C407.3 40 428.7 40 450 38.7C471.3 37.3 492.7 34.7 514.2 36C535.7 37.3 557.3 42.7 578.8 44.8C600.3 47 621.7 46 643 42.2C664.3 38.3 685.7 31.7 707 30.5C728.3 29.3 749.7 33.7 771.2 36.8C792.7 40 814.3 42 835.8 43.8C857.3 45.7 878.7 47.3 889.3 48.2L900 49L900 0L889.3 0C878.7 0 857.3 0 835.8 0C814.3 0 792.7 0 771.2 0C749.7 0 728.3 0 707 0C685.7 0 664.3 0 643 0C621.7 0 600.3 0 578.8 0C557.3 0 535.7 0 514.2 0C492.7 0 471.3 0 450 0C428.7 0 407.3 0 385.8 0C364.3 0 342.7 0 321.2 0C299.7 0 278.3 0 257 0C235.7 0 214.3 0 193 0C171.7 0 150.3 0 128.8 0C107.3 0 85.7 0 64.2 0C42.7 0 21.3 0 10.7 0L0 0Z" fill="#f77754"></path></svg>