<svg id="visual" viewBox="0 0 900 200" width="900" height="200" xmlns="http://www.w3.org/2000/svg" xmlns:xlink="http://www.w3.org/1999/xlink" version="1.1"><path d="M0 29L82 13L164 27L245 23L327 33L409 21L491 17L573 27L655 29L736 35L818 29L900 33L900 0L818 0L736 0L655 0L573 0L491 0L409 0L327 0L245 0L164 0L82 0L0 0Z" fill="#ffce45"></path><path d="M0 51L82 47L164 79L245 65L327 79L409 55L491 59L573 59L655 67L736 75L818 61L900 59L900 31L818 27L736 33L655 27L573 25L491 15L409 19L327 31L245 21L164 25L82 11L0 27Z" fill="#a49d37"></path><path d="M0 89L82 81L164 95L245 91L327 115L409 79L491 91L573 73L655 99L736 111L818 79L900 87L900 57L818 59L736 73L655 65L573 57L491 57L409 53L327 77L245 63L164 77L82 45L0 49Z" fill="#5c6a2d"></path><path d="M0 119L82 145L164 133L245 135L327 141L409 121L491 153L573 121L655 167L736 157L818 129L900 141L900 85L818 77L736 109L655 97L573 71L491 89L409 77L327 113L245 89L164 93L82 79L0 87Z" fill="#29371e"></path><path d="M0 201L82 201L164 201L245 201L327 201L409 201L491 201L573 201L655 201L736 201L818 201L900 201L900 139L818 127L736 155L655 165L573 119L491 151L409 119L327 139L245 133L164 131L82 143L0 117Z" fill="#000100"></path></svg>