<svg id="visual" viewBox="0 0 900 200" width="900" height="200" xmlns="http://www.w3.org/2000/svg" xmlns:xlink="http://www.w3.org/1999/xlink" version="1.1"><rect x="0" y="0" width="900" height="200" fill="#FFCE45"></rect><path d="M0 135L10.7 132.7C21.3 130.3 42.7 125.7 64.2 127.2C85.7 128.7 107.3 136.3 128.8 136C150.3 135.7 171.7 127.3 193 127.5C214.3 127.7 235.7 136.3 257 139C278.3 141.7 299.7 138.3 321.2 138.2C342.7 138 364.3 141 385.8 141.5C407.3 142 428.7 140 450 136C471.3 132 492.7 126 514.2 123.5C535.7 121 557.3 122 578.8 122C600.3 122 621.7 121 643 127C664.3 133 685.7 146 707 149C728.3 152 749.7 145 771.2 140.7C792.7 136.3 814.3 134.7 835.8 133.7C857.3 132.7 878.7 132.3 889.3 132.2L900 132L900 0L889.3 0C878.7 0 857.3 0 835.8 0C814.3 0 792.7 0 771.2 0C749.7 0 728.3 0 707 0C685.7 0 664.3 0 643 0C621.7 0 600.3 0 578.8 0C557.3 0 535.7 0 514.2 0C492.7 0 471.3 0 450 0C428.7 0 407.3 0 385.8 0C364.3 0 342.7 0 321.2 0C299.7 0 278.3 0 257 0C235.7 0 214.3 0 193 0C171.7 0 150.3 0 128.8 0C107.3 0 85.7 0 64.2 0C42.7 0 21.3 0 10.7 0L0 0Z" fill="#75aa42"></path><path d="M0 96L10.7 98.5C21.3 101 42.7 106 64.2 107.8C85.7 109.7 107.3 108.3 128.8 109C150.3 109.7 171.7 112.3 193 111.8C214.3 111.3 235.7 107.7 257 108C278.3 108.3 299.7 112.7 321.2 113.7C342.7 114.7 364.3 112.3 385.8 106.7C407.3 101 428.7 92 450 88.3C471.3 84.7 492.7 86.3 514.2 91.3C535.7 96.3 557.3 104.7 578.8 110.8C600.3 117 621.7 121 643 121.7C664.3 122.3 685.7 119.7 707 117.7C728.3 115.7 749.7 114.3 771.2 111C792.7 107.7 814.3 102.3 835.8 102.7C857.3 103 878.7 109 889.3 112L900 115L900 0L889.3 0C878.7 0 857.3 0 835.8 0C814.3 0 792.7 0 771.2 0C749.7 0 728.3 0 707 0C685.7 0 664.3 0 643 0C621.7 0 600.3 0 578.8 0C557.3 0 535.7 0 514.2 0C492.7 0 471.3 0 450 0C428.7 0 407.3 0 385.8 0C364.3 0 342.7 0 321.2 0C299.7 0 278.3 0 257 0C235.7 0 214.3 0 193 0C171.7 0 150.3 0 128.8 0C107.3 0 85.7 0 64.2 0C42.7 0 21.3 0 10.7 0L0 0Z" fill="#007a63"></path><path d="M0 52L10.7 56.8C21.3 61.7 42.7 71.3 64.2 76.3C85.7 81.3 107.3 81.7 128.8 79.5C150.3 77.3 171.7 72.7 193 69.2C214.3 65.7 235.7 63.3 257 61.8C278.3 60.3 299.7 59.7 321.2 59C342.7 58.3 364.3 57.7 385.8 59C407.3 60.3 428.7 63.7 450 69.2C471.3 74.7 492.7 82.3 514.2 83.8C535.7 85.3 557.3 80.7 578.8 78.5C600.3 76.3 621.7 76.7 643 77.7C664.3 78.7 685.7 80.3 707 80C728.3 79.7 749.7 77.3 771.2 74.5C792.7 71.7 814.3 68.3 835.8 68.8C857.3 69.3 878.7 73.7 889.3 75.8L900 78L900 0L889.3 0C878.7 0 857.3 0 835.8 0C814.3 0 792.7 0 771.2 0C749.7 0 728.3 0 707 0C685.7 0 664.3 0 643 0C621.7 0 600.3 0 578.8 0C557.3 0 535.7 0 514.2 0C492.7 0 471.3 0 450 0C428.7 0 407.3 0 385.8 0C364.3 0 342.7 0 321.2 0C299.7 0 278.3 0 257 0C235.7 0 214.3 0 193 0C171.7 0 150.3 0 128.8 0C107.3 0 85.7 0 64.2 0C42.7 0 21.3 0 10.7 0L0 0Z" fill="#00444f"></path><path d="M0 52L10.7 50.5C21.3 49 42.7 46 64.2 45.3C85.7 44.7 107.3 46.3 128.8 45.2C150.3 44 171.7 40 193 40.3C214.3 40.7 235.7 45.3 257 44.5C278.3 43.7 299.7 37.3 321.2 35.8C342.7 34.3 364.3 37.7 385.8 36.7C407.3 35.7 428.7 30.3 450 29.5C471.3 28.7 492.7 32.3 514.2 33.7C535.7 35 557.3 34 578.8 33.7C600.3 33.3 621.7 33.7 643 35.7C664.3 37.7 685.7 41.3 707 42.8C728.3 44.3 749.7 43.7 771.2 43C792.7 42.3 814.3 41.7 835.8 39.5C857.3 37.3 878.7 33.7 889.3 31.8L900 30L900 0L889.3 0C878.7 0 857.3 0 835.8 0C814.3 0 792.7 0 771.2 0C749.7 0 728.3 0 707 0C685.7 0 664.3 0 643 0C621.7 0 600.3 0 578.8 0C557.3 0 535.7 0 514.2 0C492.7 0 471.3 0 450 0C428.7 0 407.3 0 385.8 0C364.3 0 342.7 0 321.2 0C299.7 0 278.3 0 257 0C235.7 0 214.3 0 193 0C171.7 0 150.3 0 128.8 0C107.3 0 85.7 0 64.2 0C42.7 0 21.3 0 10.7 0L0 0Z" fill="#001220"></path></svg>